<svg width="612" height="1034" viewBox="0 0 612 1034" fill="none" xmlns="http://www.w3.org/2000/svg">
<path d="M472.187 711.281C598.13 597.855 630.101 439.832 601.281 288.562C618.157 424.406 530.22 511.222 386.125 591.469C321.694 624.85 288.327 647.568 234.25 696.094C170.125 766.969 155.781 922.219 246.062 1033.59C223.28 942.469 262.093 868.219 377.687 789.75C414.812 761.906 440.765 742.078 472.187 711.281Z" fill="url(#paint0_linear_61799_7662)"/>
<path d="M601.674 281.812C578.049 162 506.859 74.178 395.799 0C379.751 74.7535 350.613 121.849 229.58 223.594C112.483 315.619 63.4222 363.555 30.4546 437.062C-27.764 563.625 -3.29519 729 110.611 856.406C86.9859 723.094 145.205 634 267.549 543.375C404.236 442.125 465.773 378.896 493.673 253.125C518.413 343.015 496.205 426.094 394.955 534.938C346.017 581.344 229.554 686.045 232.875 697.781C285.561 648.783 321.927 626.135 394.955 588.094C532.266 507.62 620.246 427.351 601.674 281.812Z" fill="url(#paint1_linear_61799_7662)"/>
<defs>
<linearGradient id="paint0_linear_61799_7662" x1="611.326" y1="289.406" x2="251.889" y2="1033.59" gradientUnits="userSpaceOnUse">
<stop offset="0.508308" stop-color="#0F7AA8"/>
<stop offset="0.987529" stop-color="#1A303E"/>
</linearGradient>
<linearGradient id="paint1_linear_61799_7662" x1="302.07" y1="0" x2="81.8438" y2="813.375" gradientUnits="userSpaceOnUse">
<stop stop-color="#72B01B"/>
<stop offset="0.5" stop-color="#30AA9B"/>
<stop offset="1" stop-color="#1D7879"/>
</linearGradient>
</defs>
</svg>
